<svg width="139" height="149" viewBox="0 0 139 149" fill="none" xmlns="http://www.w3.org/2000/svg">
<rect width="139" height="149" rx="20" fill="url(#paint0_linear_1414_1077)"/>
<path d="M55.1757 72.5002C52.7318 95.9621 83.3438 126.649 80.4148 126C77.4858 125.351 35.9148 97.5002 45.9148 66.0002C55.9148 34.5003 96.1757 39.5002 92.6757 41.0001C89.1757 42.5 57.6197 49.0383 55.1757 72.5002Z" fill="white"/>
<ellipse cx="53.4141" cy="35" rx="6.70428" ry="8.94722" transform="rotate(47.1496 53.4141 35)" fill="white"/>
<path d="M46.9139 64.9846C44.6792 64.6498 34.4139 64.5002 32.315 64.9846C30.2162 65.469 25.7528 66.5099 23.9138 68.0002C22.0749 69.4905 20.6071 69.7254 19.4138 71.8538C18.2206 73.9822 17.2798 74.8112 16.9139 77.2536C16.6891 78.7536 15.9139 81.5002 16.9139 85.0002C17.4309 87.3849 20.5924 92.0364 21.9138 94.0002C23.2352 95.964 27.4892 100.256 29.4138 101.5C36.9138 107.5 51.1791 115.665 53.4138 116L43.9139 108C42.9139 107.5 39.4139 103.5 38.4139 102.5C37.5292 101.615 28.2354 90.7211 27.4139 89.5002C26.5923 88.2792 26.0457 87.2639 25.4139 86.0002C24.9139 85.0002 23.9139 82.5001 24.4139 81.0002C24.9138 79.5002 26.1981 78.6053 27.4139 78.0002C28.9139 77.2536 28.4139 77.5002 29.4139 77.2536C30.9139 77.2536 33.1152 77.2536 34.4138 77.2536C35.7125 77.2536 43.4138 77.0002 44.9139 78.5002L46.9139 64.9846Z" fill="white"/>
<path d="M99.9138 74.0006C111.414 73.5006 124.914 79.5004 127.414 80.0004C129.914 80.5004 111.082 72.0003 106.914 71.0004C97.4137 67.5006 80.716 72.5572 80.9137 71.5004C81.9818 70.5002 87.4998 65.0004 88.9998 62.0006C88.7168 61.5716 90.0859 60.5003 86.4998 57.0004C85.5859 56.1084 81.4998 56.5004 80.2425 56.5005C78.9851 56.5007 70.9998 58.5004 67.9138 60.5006C62.4999 63.5005 60.9137 67.0004 59.4138 70.0008C57.914 73.0012 57.9137 74.5004 57.9137 77.0004C57.9136 79.5004 59.4138 84.0004 59.4138 84.0004C59.4138 84.0004 59.414 82.0004 59.4138 80.0004C59.4136 78.0004 59.4137 77.5005 59.9137 75.0004C60.4137 72.5004 61.9138 71.0008 62.9136 69.5006C63.9135 68.0004 68.9998 64.0004 69.9138 63.5006C70.7078 63.0664 73.4949 62.1662 74.4138 62.0006C75.3328 61.835 80.1124 61.1806 80.9138 61.1211C81.548 61.0741 83.4138 60.9693 83.9138 62.0006C84.4138 63.032 82.0025 64.251 81.3455 65.0006C80.5349 65.9255 79.0274 66.9366 78.4138 67.5006C77.3856 68.2694 76.304 69.3351 75.4138 70.0006C74.5236 70.6662 73.3275 71.5008 72.9137 74.0006C72.4998 76.5004 74.4138 78.0007 76.4138 78.5007C78.4138 79.0007 88.4138 74.5006 99.9138 74.0006Z" fill="white"/>
<defs>
<linearGradient id="paint0_linear_1414_1077" x1="70" y1="149" x2="70" y2="-6.19698e-08" gradientUnits="userSpaceOnUse">
<stop stop-color="#007AFF"/>
<stop offset="1" stop-color="#18ADFE"/>
<stop offset="1" stop-color="#005FEE" stop-opacity="0"/>
</linearGradient>
</defs>
</svg>
