<svg width="28" height="28" viewBox="0 0 28 28" fill="none" xmlns="http://www.w3.org/2000/svg">
<g filter="url(#filter0_bdii_240_12750)">
<path d="M13 13H15V15H13V13ZM13 5H15V11H13V5ZM14 0C8.47 0 4 4.5 4 10C4 12.6522 5.05357 15.1957 6.92893 17.0711C7.85752 17.9997 8.95991 18.7362 10.1732 19.2388C11.3864 19.7413 12.6868 20 14 20C16.6522 20 19.1957 18.9464 21.0711 17.0711C22.9464 15.1957 24 12.6522 24 10C24 8.68678 23.7413 7.38642 23.2388 6.17317C22.7362 4.95991 21.9997 3.85752 21.0711 2.92893C20.1425 2.00035 19.0401 1.26375 17.8268 0.761205C16.6136 0.258658 15.3132 0 14 0ZM14 18C11.8783 18 9.84344 17.1571 8.34315 15.6569C6.84285 14.1566 6 12.1217 6 10C6 7.87827 6.84285 5.84344 8.34315 4.34315C9.84344 2.84285 11.8783 2 14 2C16.1217 2 18.1566 2.84285 19.6569 4.34315C21.1571 5.84344 22 7.87827 22 10C22 12.1217 21.1571 14.1566 19.6569 15.6569C18.1566 17.1571 16.1217 18 14 18Z" fill="#FF1F00"/>
</g>
<defs>
<filter id="filter0_bdii_240_12750" x="0" y="-4" width="28" height="32" filterUnits="userSpaceOnUse" color-interpolation-filters="sRGB">
<feFlood flood-opacity="0" result="BackgroundImageFix"/>
<feGaussianBlur in="BackgroundImageFix" stdDeviation="2"/>
<feComposite in2="SourceAlpha" operator="in" result="effect1_backgroundBlur_240_12750"/>
<feColorMatrix in="SourceAlpha" type="matrix" values="0 0 0 0 0 0 0 0 0 0 0 0 0 0 0 0 0 0 127 0" result="hardAlpha"/>
<feOffset dy="4"/>
<feGaussianBlur stdDeviation="2"/>
<feComposite in2="hardAlpha" operator="out"/>
<feColorMatrix type="matrix" values="0 0 0 0 0 0 0 0 0 0 0 0 0 0 0 0 0 0 0.25 0"/>
<feBlend mode="normal" in2="effect1_backgroundBlur_240_12750" result="effect2_dropShadow_240_12750"/>
<feBlend mode="normal" in="SourceGraphic" in2="effect2_dropShadow_240_12750" result="shape"/>
<feColorMatrix in="SourceAlpha" type="matrix" values="0 0 0 0 0 0 0 0 0 0 0 0 0 0 0 0 0 0 127 0" result="hardAlpha"/>
<feOffset dx="4" dy="4"/>
<feGaussianBlur stdDeviation="2"/>
<feComposite in2="hardAlpha" operator="arithmetic" k2="-1" k3="1"/>
<feColorMatrix type="matrix" values="0 0 0 0 0 0 0 0 0 0 0 0 0 0 0 0 0 0 0.25 0"/>
<feBlend mode="normal" in2="shape" result="effect3_innerShadow_240_12750"/>
<feColorMatrix in="SourceAlpha" type="matrix" values="0 0 0 0 0 0 0 0 0 0 0 0 0 0 0 0 0 0 127 0" result="hardAlpha"/>
<feOffset dy="-4"/>
<feGaussianBlur stdDeviation="3"/>
<feComposite in2="hardAlpha" operator="arithmetic" k2="-1" k3="1"/>
<feColorMatrix type="matrix" values="0 0 0 0 0 0 0 0 0 0 0 0 0 0 0 0 0 0 0.25 0"/>
<feBlend mode="normal" in2="effect3_innerShadow_240_12750" result="effect4_innerShadow_240_12750"/>
</filter>
</defs>
</svg>
